<svg width="117" height="100" viewBox="0 0 117 100" fill="none" xmlns="http://www.w3.org/2000/svg">
<path d="M40.6588 24.1987C40.7646 24.4124 40.8176 25.1603 40.8176 26.4423C40.8704 27.7244 40.8704 29.2736 40.8176 31.0897C40.8176 32.9059 40.7646 34.8559 40.6588 36.939C40.5533 38.969 40.4212 40.8921 40.2627 42.7082C40.1569 43.7233 39.972 45.2456 39.7078 47.2756C39.4965 49.3056 39.2325 51.5492 38.9154 54.0064C38.5984 56.4636 38.2547 59.001 37.885 61.6185C37.5679 64.1826 37.2509 66.5597 36.9339 68.75C36.6168 70.8867 36.3262 72.6764 36.0622 74.1185C35.8506 75.561 35.6921 76.3354 35.5864 76.4423C35.3751 76.6026 35.0317 77.0031 34.5562 77.6441C34.0806 78.2318 33.5523 78.8462 32.971 79.4872C32.4427 80.0749 31.9408 80.5556 31.465 80.9295C30.9897 81.3033 30.6727 81.3569 30.5139 81.0897C30.4084 80.5556 30.3556 78.8995 30.3556 76.1218C30.3556 74.9467 30.3556 73.4774 30.3556 71.7149C30.4084 69.8985 30.4612 67.7082 30.5139 65.1441C30.6197 62.58 30.7518 59.5887 30.9103 56.1697C31.0688 52.751 31.2537 48.7979 31.465 44.3108C30.4084 47.9433 29.4573 51.1485 28.6117 53.9262C27.8194 56.7041 27.106 59.1346 26.4719 61.2179C25.8906 63.2479 25.3887 64.9841 24.966 66.4262C24.5433 67.8151 24.1735 68.9636 23.8564 69.8718C23.1695 72.0085 22.7204 73.2638 22.5091 73.6379C22.2977 73.6913 21.9543 73.531 21.4787 73.1569C21.056 72.7831 20.5541 72.249 19.9728 71.5544C19.4445 70.8067 18.8897 69.9251 18.3084 68.9103C17.78 67.8954 17.3309 66.7736 16.961 65.5449C16.5912 64.4231 16.1156 62.9274 15.5344 61.0577C15.006 59.4551 14.3191 57.3718 13.4737 54.8077C12.6283 52.1903 11.598 48.9315 10.3827 45.0321C10.6997 49.4123 10.9639 53.2585 11.1753 56.5705C11.3866 59.8826 11.5451 62.7672 11.6508 65.2244C11.8093 67.6815 11.915 69.7649 11.9678 71.4744C12.0735 73.1303 12.1264 74.5192 12.1264 75.641C12.1792 78.2051 12.0999 79.6741 11.8886 80.0482C11.3602 80.0482 10.779 79.8077 10.1449 79.3269C9.5637 78.7928 8.9825 78.1785 8.40127 77.4841C7.87289 76.7362 7.39735 76.0149 6.97464 75.3205C6.60478 74.6262 6.39341 74.1185 6.34058 73.798C6.28775 73.5844 6.12923 72.5962 5.86504 70.8333C5.60084 69.0705 5.28381 66.8269 4.91395 64.1026C4.59692 61.3249 4.22706 58.2264 3.80435 54.8077C3.43449 51.3354 3.0646 47.8097 2.69475 44.2308C2.37772 40.6518 2.11352 37.1795 1.90217 33.8141C1.69082 30.3954 1.58514 27.3505 1.58514 24.6795C1.58514 24.2521 2.11352 23.6912 3.17029 22.9968C4.22706 22.2489 5.41592 21.5545 6.73686 20.9135C8.11067 20.219 9.37878 19.6314 10.5412 19.1506C11.7036 18.6165 12.417 18.3494 12.6812 18.3494C12.8925 18.3494 13.1039 18.9637 13.3152 20.1923C13.5794 21.4209 13.87 22.9701 14.187 24.8397C14.5041 26.7095 14.8475 28.7928 15.2174 31.0897C15.5872 33.3867 16.01 35.5769 16.4855 37.6603C16.8554 39.7969 17.3045 42.0138 17.8329 44.3108C18.2556 46.2874 18.7311 48.4774 19.2595 50.8815C19.8407 53.2318 20.4748 55.5287 21.1617 57.7723C21.9014 54.5138 22.5619 51.5759 23.1431 48.9585C23.7772 46.2874 24.332 44.0172 24.8075 42.1474C25.3887 39.9572 25.8906 38.0074 26.3134 36.2979C27.2645 32.1313 28.1892 28.8462 29.0875 26.4423C30.0386 24.0385 30.646 22.6229 30.9103 22.1955C31.0688 21.9818 31.6238 21.9284 32.5749 22.0353C33.5787 22.1421 34.6619 22.3291 35.8243 22.5962C36.9866 22.8098 38.0435 23.0769 38.9946 23.3974C39.9984 23.7179 40.5533 23.9851 40.6588 24.1987Z" fill="white"/>
<path d="M52.9834 25.5208C53.1683 25.681 53.34 25.9882 53.4988 26.4423C53.6837 26.8964 53.8422 27.4438 53.9741 28.0849C54.1062 28.7259 54.2251 29.4205 54.3309 30.1682C54.4364 30.9162 54.529 31.6508 54.6081 32.3718C54.6875 33.0928 54.7403 33.7741 54.7669 34.4151C54.8196 35.0295 54.8592 35.5369 54.8856 35.9374C54.912 36.4182 54.9251 36.9256 54.9251 37.46C54.9518 37.9674 54.9518 38.4615 54.9251 38.9423C54.9251 39.3964 54.8988 39.8103 54.846 40.1844C54.8196 40.5582 54.7669 40.8387 54.6875 41.0256C54.529 41.4262 54.2515 41.7067 53.8554 41.8669C53.4853 42.0005 53.0628 42.0941 52.5872 42.1474C52.3493 42.1741 51.94 42.1874 51.3587 42.1874C50.8038 42.1608 50.1963 42.1341 49.5357 42.1074C48.9016 42.0538 48.2942 42.0005 47.7129 41.9472C47.1316 41.8936 46.6958 41.8403 46.4052 41.7869C45.8239 41.6533 45.4011 41.4797 45.1371 41.2662C44.8992 41.0523 44.6615 40.7451 44.4236 40.3446C44.3445 40.1844 44.2783 39.7836 44.2255 39.1426C44.1728 38.4749 44.133 37.6869 44.1066 36.779C44.1066 35.8441 44.1198 34.8423 44.1462 33.7741C44.1728 32.7056 44.2124 31.6908 44.2651 30.7292C44.3445 29.7677 44.4236 28.9262 44.503 28.2051C44.6085 27.4841 44.7407 27.0031 44.8992 26.7628C45.1634 26.389 45.6126 26.0415 46.2467 25.721C46.9071 25.4006 47.5016 25.1469 48.0299 24.9599C48.2942 24.8798 48.6376 24.8264 49.0604 24.7997C49.5093 24.7463 49.9716 24.7463 50.4472 24.7997C50.9491 24.8264 51.4246 24.9065 51.8738 25.0401C52.323 25.1469 52.6928 25.3072 52.9834 25.5208ZM50.7642 37.9408C50.8172 37.8338 50.87 37.5133 50.9227 36.9792C51.0021 36.4182 51.0549 35.7505 51.0812 34.9759C51.1342 34.2013 51.1606 33.3733 51.1606 32.4921C51.187 31.6105 51.2002 30.7959 51.2002 30.0482C51.2002 29.3003 51.1738 28.6726 51.1208 28.1651C51.068 27.6308 51.0021 27.3236 50.9227 27.2436C50.7906 27.1367 50.5925 27.0967 50.3285 27.1233C50.0906 27.1233 49.8395 27.1636 49.5755 27.2436C49.3112 27.2969 49.0736 27.3772 48.862 27.4841C48.6508 27.5641 48.5054 27.6441 48.4263 27.7244C48.0826 28.0182 47.8978 28.499 47.8714 29.1667C47.8714 29.3536 47.845 29.8877 47.7922 30.7692C47.7656 31.6238 47.7524 32.5587 47.7524 33.5738C47.7524 34.562 47.7656 35.4833 47.7922 36.3382C47.845 37.1928 47.9373 37.7136 48.0695 37.9005C48.2016 38.0877 48.3865 38.2346 48.6244 38.3413C48.8884 38.4215 49.1527 38.4615 49.417 38.4615C49.7076 38.4615 49.9716 38.4215 50.2095 38.3413C50.4736 38.2346 50.6587 38.101 50.7642 37.9408ZM60.3545 47.1954C60.1696 47.249 59.958 47.1821 59.7204 46.9951C59.4825 46.8082 59.2449 46.5813 59.007 46.3141C58.7957 46.0203 58.6108 45.7131 58.4523 45.3926C58.2938 45.0721 58.188 44.8051 58.1353 44.5913C57.9504 42.241 57.7919 40.1441 57.6597 38.3013C57.554 36.4315 57.4614 34.7756 57.3822 33.3333C57.3031 31.891 57.2369 30.649 57.1842 29.6074C57.1578 28.539 57.1444 27.6308 57.1444 26.8831C57.118 25.1469 57.1444 23.945 57.2237 23.2772C57.3031 22.7965 57.5144 22.3157 57.8578 21.8349C58.2276 21.3542 58.6108 20.9402 59.007 20.593C59.4297 20.2457 59.8127 19.9786 60.1564 19.7917C60.5262 19.6047 60.7638 19.5513 60.8696 19.6314C60.9753 19.7115 61.0545 20.1656 61.1075 20.9936C61.1602 21.7949 61.1998 22.8499 61.2262 24.1587C61.2525 25.4674 61.2525 26.9364 61.2262 28.5656C61.2262 30.1949 61.1998 31.8644 61.147 33.5738C61.1207 35.2831 61.0808 36.9526 61.0281 38.5818C60.9753 40.211 60.9091 41.6667 60.83 42.9487C60.7506 44.2041 60.6715 45.219 60.5921 45.9936C60.513 46.7682 60.4336 47.1687 60.3545 47.1954ZM67.4876 47.1954C67.3027 47.249 67.0912 47.1821 66.8536 46.9951C66.6157 46.8082 66.378 46.5813 66.1401 46.3141C65.9288 46.0203 65.744 45.7131 65.5854 45.3926C65.4269 45.0721 65.3212 44.8051 65.2684 44.5913C65.0835 42.241 64.925 40.1441 64.7929 38.3013C64.6871 36.4315 64.5948 34.7756 64.5154 33.3333C64.436 31.891 64.3701 30.649 64.3173 29.6074C64.2909 28.539 64.2778 27.6308 64.2778 26.8831C64.2511 25.1469 64.2778 23.945 64.3569 23.2772C64.436 22.7965 64.6475 22.3157 64.9909 21.8349C65.3607 21.3542 65.744 20.9402 66.1401 20.593C66.5629 20.2457 66.9459 19.9786 67.2893 19.7917C67.6593 19.6047 67.897 19.5513 68.0027 19.6314C68.1085 19.7115 68.1876 20.1656 68.2404 20.9936C68.2934 21.7949 68.3329 22.8499 68.3593 24.1587C68.3857 25.4674 68.3857 26.9364 68.3593 28.5656C68.3593 30.1949 68.3329 31.8644 68.2802 33.5738C68.2538 35.2831 68.214 36.9526 68.1612 38.5818C68.1085 40.211 68.0423 41.6667 67.9632 42.9487C67.8838 44.2041 67.8046 45.219 67.7253 45.9936C67.6461 46.7682 67.5667 47.1687 67.4876 47.1954ZM80.1292 26.0015C80.182 26.0818 80.2611 26.4556 80.3668 27.1233C80.4726 27.791 80.5781 28.6192 80.6839 29.6074C80.816 30.5956 80.935 31.6641 81.0405 32.8126C81.1726 33.961 81.2916 35.0562 81.3973 36.0977C81.5292 37.1395 81.635 38.0744 81.7143 38.9023C81.7935 39.7303 81.8594 40.291 81.9124 40.5849C81.9916 41.0656 82.0841 41.6 82.1896 42.1874C82.2954 42.7485 82.388 43.2959 82.4671 43.8303C82.5465 44.3377 82.5992 44.7782 82.6256 45.1523C82.6786 45.5262 82.6654 45.7533 82.5861 45.8333C82.5333 45.9133 82.3218 45.9403 81.952 45.9133C81.5822 45.86 81.1726 45.78 80.7234 45.6731C80.3009 45.5395 79.8913 45.3926 79.4951 45.2323C79.1251 45.0454 78.8875 44.8718 78.7817 44.7115C78.6759 44.5779 78.5704 44.3777 78.4647 44.1105C78.3853 43.8436 78.2798 43.3762 78.1476 42.7082C77.857 43.109 77.54 43.5364 77.1966 43.9903C76.8795 44.4177 76.5625 44.8185 76.2455 45.1923C75.9284 45.5395 75.6378 45.82 75.3738 46.0336C75.1095 46.2474 74.9114 46.3541 74.7793 46.3541C74.5678 46.3541 74.2507 46.1405 73.8282 45.7131C73.4054 45.259 72.9826 44.7515 72.5601 44.1908C72.1373 43.6297 71.7543 43.0956 71.4107 42.5882C71.0672 42.0808 70.8824 41.7467 70.856 41.5867C70.8032 41.4262 70.7766 40.9856 70.7766 40.2644C70.8032 39.5433 70.8296 38.7421 70.856 37.8605C70.9087 36.9526 70.9617 36.0577 71.0145 35.1764C71.0672 34.2682 71.1203 33.5469 71.173 33.0128C71.2258 32.4787 71.2788 31.891 71.3315 31.25C71.4107 30.5823 71.49 29.9679 71.5694 29.4072C71.6486 28.8195 71.7145 28.3121 71.7675 27.8846C71.8466 27.4572 71.9128 27.2036 71.9656 27.1233C72.0183 27.0433 72.1637 27.0031 72.4016 27.0031C72.6656 26.9764 72.9299 26.9897 73.1941 27.0433C73.4848 27.07 73.7488 27.1367 73.9867 27.2436C74.2243 27.3236 74.3829 27.4305 74.4622 27.5641C74.515 27.671 74.5414 28.0182 74.5414 28.6056C74.5678 29.1667 74.5809 29.861 74.5809 30.6892C74.5809 31.4903 74.5809 32.3718 74.5809 33.3333C74.5809 34.2682 74.5678 35.1495 74.5414 35.9774C74.5414 36.779 74.5282 37.4733 74.5018 38.061C74.5018 38.6218 74.5018 38.9556 74.5018 39.0626C74.5018 39.2762 74.6208 39.6903 74.8584 40.3046C75.1227 40.9187 75.387 41.5064 75.651 42.0672L77.7117 39.5833C77.6853 39.1026 77.6589 38.4882 77.6325 37.7405C77.6325 36.9926 77.6193 36.2046 77.593 35.3767C77.5663 34.5487 77.54 33.7072 77.5136 32.8526C77.4872 31.9979 77.474 31.2233 77.474 30.5287C77.474 29.8344 77.474 29.2603 77.474 28.8062C77.474 28.3521 77.4872 28.0849 77.5136 28.0049C77.593 27.8446 77.7512 27.6308 77.9891 27.3638C78.227 27.0967 78.4911 26.8431 78.7817 26.6026C79.0724 26.3621 79.3364 26.1751 79.5743 26.0415C79.8386 25.9082 80.0234 25.8949 80.1292 26.0015ZM95.7032 27.7244C95.7296 28.0182 95.6768 28.4723 95.5447 29.0867C95.4389 29.7008 95.2672 30.3151 95.0296 30.9295C94.818 31.5438 94.5274 32.0779 94.1576 32.5321C93.8142 32.9862 93.4178 33.2131 92.9686 33.2131C92.6516 33.2131 92.3876 32.9595 92.1763 32.4518C91.9912 31.9444 91.8458 31.3569 91.7403 30.6892C91.6609 29.9946 91.595 29.3136 91.5422 28.6459C91.4892 27.9782 91.4365 27.5108 91.3835 27.2436C91.3043 27.11 91.1458 26.9897 90.9082 26.8831C90.6967 26.7495 90.4854 26.6826 90.2741 26.6826C90.0626 26.6826 89.825 26.8564 89.5607 27.2036C89.2964 27.5508 89.0324 27.9513 88.7681 28.4054C88.5302 28.8595 88.319 29.3136 88.1341 29.7677C87.9755 30.2218 87.9096 30.5556 87.936 30.7692C87.936 30.9295 88.1077 31.21 88.4511 31.6105C88.7945 32.0113 89.2173 32.4921 89.7192 33.0528C90.2475 33.5872 90.8024 34.1746 91.3835 34.8156C91.9912 35.43 92.5461 36.0577 93.048 36.6987C93.5499 37.3131 93.9727 37.9005 94.3161 38.4615C94.6859 39.0226 94.8842 39.5031 94.9106 39.9038C94.937 40.3846 94.8049 40.999 94.5142 41.7467C94.2502 42.4946 93.9065 43.2159 93.484 43.9103C93.0612 44.6046 92.612 45.2056 92.1365 45.7131C91.6609 46.2205 91.2384 46.4877 90.8684 46.5144C90.4986 46.541 89.9571 46.3408 89.2437 45.9133C88.5569 45.4595 87.8566 44.9385 87.1434 44.351C86.4563 43.7367 85.8357 43.1356 85.2808 42.5482C84.7525 41.9605 84.4487 41.5331 84.3693 41.2662C84.2901 41.0256 84.2371 40.7051 84.2108 40.3046C84.2108 39.9038 84.2239 39.5031 84.2506 39.1026C84.3033 38.7021 84.3825 38.3679 84.4882 38.101C84.594 37.8072 84.7259 37.6603 84.8846 37.6603C85.0429 37.6603 85.3599 37.9408 85.8357 38.5015C86.311 39.0359 86.8264 39.65 87.381 40.3446C87.936 41.0123 88.4775 41.6267 89.006 42.1874C89.5343 42.7218 89.9173 42.9887 90.1552 42.9887C90.2873 42.9887 90.4324 42.8954 90.5912 42.7082C90.7494 42.4946 90.8947 42.2544 91.0269 41.9872C91.159 41.72 91.2648 41.4531 91.3439 41.1859C91.4497 40.8921 91.5024 40.6651 91.5024 40.5049C91.476 40.2644 91.2648 39.9172 90.8684 39.4631C90.4722 39.009 89.9703 38.5015 89.3626 37.9408C88.7549 37.3797 88.0945 36.7923 87.381 36.1779C86.6679 35.5369 86.0074 34.9359 85.3998 34.3749C84.7921 33.8141 84.2901 33.3067 83.8937 32.8526C83.4976 32.3985 83.286 32.0513 83.2597 31.8108C83.2333 31.5705 83.3127 31.1967 83.4976 30.6892C83.6825 30.1549 83.9201 29.5808 84.2108 28.9664C84.5014 28.3254 84.8316 27.671 85.2017 27.0031C85.5978 26.3354 85.994 25.721 86.3904 25.1603C86.7868 24.5994 87.1698 24.1453 87.5396 23.7981C87.936 23.4242 88.2794 23.2372 88.57 23.2372C89.1511 23.2372 89.8382 23.3974 90.6307 23.718C91.4497 24.0385 92.2291 24.4391 92.9686 24.9199C93.7084 25.3739 94.3425 25.8546 94.8708 26.3621C95.3993 26.8697 95.6768 27.3236 95.7032 27.7244ZM103.272 33.5336C103.484 33.9077 103.801 34.4685 104.223 35.2164C104.672 35.9641 105.148 36.7923 105.65 37.7003C106.152 38.6085 106.667 39.5433 107.195 40.5049C107.724 41.4664 108.186 42.3477 108.582 43.149C108.979 43.9503 109.282 44.6179 109.494 45.1523C109.732 45.6864 109.811 45.9803 109.732 46.0336C109.599 46.1138 109.401 46.1538 109.137 46.1538C108.873 46.1272 108.596 46.0872 108.305 46.0336C108.014 45.9536 107.737 45.86 107.473 45.7533C107.235 45.6197 107.063 45.4995 106.958 45.3926C106.059 44.1641 105.254 43.0287 104.54 41.9872C103.853 40.9456 103.246 40.0374 102.717 39.2628C102.11 38.3815 101.568 37.5667 101.093 36.819C101.013 38.0744 100.934 39.2628 100.855 40.3846C100.776 41.5064 100.696 42.5079 100.617 43.3895C100.538 44.2441 100.445 44.9385 100.34 45.4728C100.26 45.9803 100.181 46.2474 100.102 46.2741C99.8905 46.3008 99.666 46.2205 99.4281 46.0336C99.1905 45.82 98.9658 45.5662 98.7545 45.2723C98.5433 44.9518 98.3449 44.6313 98.16 44.3108C98.0015 43.9636 97.9092 43.6697 97.8828 43.4295C97.7241 40.999 97.5922 38.8221 97.4864 36.899C97.407 34.9492 97.3279 33.2264 97.2488 31.7308C97.1958 30.2351 97.1562 28.9397 97.1298 27.8446C97.1298 26.7228 97.1298 25.7746 97.1298 25C97.1298 23.1571 97.1826 21.8884 97.2883 21.1939C97.3938 20.6597 97.6317 20.1523 98.0015 19.6715C98.3979 19.164 98.8205 18.7233 99.2696 18.3494C99.7188 17.9754 100.142 17.695 100.538 17.508C100.934 17.3211 101.198 17.2676 101.33 17.3477C101.436 17.4279 101.502 17.8953 101.528 18.75C101.555 19.6047 101.555 20.6998 101.528 22.0353C101.528 23.344 101.502 24.813 101.449 26.4423C101.397 28.0715 101.344 29.7008 101.291 31.3303C101.766 30.609 102.229 29.8877 102.678 29.1667C103.127 28.4187 103.55 27.751 103.946 27.1636C104.342 26.5492 104.686 26.0415 104.976 25.641C105.293 25.2404 105.531 25 105.69 24.9199C105.874 24.813 106.165 24.7329 106.561 24.6795C106.984 24.5994 107.407 24.546 107.829 24.5192C108.252 24.4925 108.635 24.5059 108.979 24.5593C109.349 24.6127 109.573 24.7062 109.652 24.8397C109.732 24.9199 109.586 25.2537 109.216 25.8413C108.847 26.4023 108.358 27.0967 107.75 27.9246C107.143 28.7526 106.443 29.6608 105.65 30.649C104.857 31.6372 104.065 32.5987 103.272 33.5336ZM114.17 30.2082C114.223 30.3418 114.249 30.7692 114.249 31.4903C114.276 32.1849 114.276 33.0395 114.249 34.0544C114.249 35.0428 114.223 36.111 114.17 37.2595C114.117 38.3815 114.051 39.4497 113.972 40.4646C113.919 41.4531 113.853 42.3077 113.774 43.0287C113.694 43.7233 113.615 44.1372 113.536 44.2708C113.298 44.6449 112.941 44.8851 112.466 44.9921C111.99 45.0721 111.647 45.0854 111.436 45.0321C111.33 45.0321 111.211 44.7249 111.079 44.1105C110.973 43.4962 110.868 42.7218 110.762 41.7869C110.656 40.8521 110.564 39.8372 110.485 38.7421C110.405 37.6469 110.339 36.6051 110.287 35.6169C110.234 34.6021 110.207 33.7205 110.207 32.9728C110.207 32.2249 110.234 31.7441 110.287 31.5305C110.366 31.1833 110.59 30.8762 110.96 30.609C111.356 30.3418 111.766 30.1415 112.189 30.0079C112.638 29.8744 113.047 29.821 113.417 29.8477C113.813 29.8477 114.064 29.9679 114.17 30.2082ZM114.368 23.718C114.474 23.9316 114.513 24.2254 114.487 24.5994C114.487 24.9733 114.447 25.3606 114.368 25.7613C114.289 26.1618 114.183 26.5492 114.051 26.9231C113.919 27.2969 113.787 27.5908 113.655 27.8046C113.391 28.1785 112.994 28.4187 112.466 28.5256C111.964 28.6056 111.594 28.6192 111.356 28.5656C111.171 28.539 110.987 28.4187 110.802 28.2051C110.617 27.9646 110.458 27.6844 110.326 27.3638C110.194 27.0167 110.102 26.6426 110.049 26.2421C109.996 25.8413 110.009 25.4674 110.088 25.1202C110.168 24.773 110.419 24.4658 110.841 24.1987C111.264 23.9049 111.713 23.6912 112.189 23.5577C112.664 23.3974 113.113 23.3307 113.536 23.3574C113.959 23.3574 114.236 23.4776 114.368 23.718Z" fill="white"/>
<path d="M53.2609 59.3349C53.3136 59.4151 53.393 59.789 53.4988 60.4567C53.6043 61.1244 53.71 61.9526 53.8158 62.9408C53.9477 63.929 54.0666 64.9974 54.1724 66.1459C54.3045 67.2944 54.4232 68.3895 54.529 69.431C54.6611 70.4728 54.7669 71.4077 54.846 72.2356C54.9251 73.0636 54.9913 73.6244 55.0441 73.9182C55.1235 74.399 55.2158 74.9333 55.3216 75.5208C55.4273 76.0818 55.5196 76.6292 55.599 77.1636C55.6781 77.671 55.7312 78.1115 55.7575 78.4856C55.8103 78.8595 55.7971 79.0867 55.718 79.1667C55.665 79.2467 55.4537 79.2736 55.0839 79.2467C54.7139 79.1933 54.3045 79.1133 53.8554 79.0064C53.4326 78.8728 53.023 78.7259 52.6268 78.5656C52.257 78.3787 52.0191 78.2051 51.9136 78.0449C51.8079 77.9113 51.7021 77.711 51.5966 77.4438C51.5172 77.1769 51.4114 76.7095 51.2796 76.0415C50.9889 76.4423 50.6719 76.8697 50.3285 77.3236C50.0114 77.751 49.6944 78.1518 49.3774 78.5256C49.0604 78.8728 48.7697 79.1533 48.5054 79.3669C48.2412 79.5808 48.0431 79.6874 47.9109 79.6874C47.6997 79.6874 47.3826 79.4739 46.9598 79.0464C46.5373 78.5923 46.1145 78.0849 45.6917 77.5241C45.2692 76.9631 44.886 76.429 44.5426 75.9215C44.1992 75.4141 44.0143 75.08 43.9879 74.92C43.9349 74.7595 43.9085 74.319 43.9085 73.5977C43.9349 72.8767 43.9613 72.0754 43.9879 71.1939C44.0406 70.2859 44.0934 69.391 44.1462 68.5097C44.1992 67.6015 44.2519 66.8803 44.3049 66.3462C44.3577 65.8121 44.4104 65.2244 44.4632 64.5833C44.5426 63.9156 44.622 63.3013 44.7011 62.7405C44.7802 62.1528 44.8464 61.6454 44.8992 61.218C44.9785 60.7905 45.0445 60.5369 45.0972 60.4567C45.1502 60.3767 45.2956 60.3364 45.5332 60.3364C45.7975 60.3097 46.0618 60.3231 46.3258 60.3767C46.6164 60.4033 46.8807 60.47 47.1184 60.5769C47.3563 60.6569 47.5148 60.7638 47.5939 60.8974C47.6469 61.0044 47.6733 61.3515 47.6733 61.939C47.6997 62.5 47.7129 63.1944 47.7129 64.0226C47.7129 64.8236 47.7129 65.7051 47.7129 66.6667C47.7129 67.6015 47.6997 68.4828 47.6733 69.3108C47.6733 70.1123 47.6601 70.8067 47.6335 71.3944C47.6335 71.9551 47.6335 72.289 47.6335 72.3959C47.6335 72.6095 47.7524 73.0236 47.9903 73.638C48.2543 74.2521 48.5186 74.8397 48.7829 75.4005L50.8436 72.9167C50.8172 72.4359 50.7906 71.8215 50.7642 71.0738C50.7642 70.3259 50.751 69.538 50.7246 68.71C50.6983 67.8821 50.6719 67.0405 50.6455 66.1859C50.6189 65.3313 50.6057 64.5567 50.6057 63.8621C50.6057 63.1677 50.6057 62.5936 50.6057 62.1395C50.6057 61.6854 50.6189 61.4182 50.6455 61.3382C50.7246 61.178 50.8831 60.9641 51.1208 60.6972C51.3587 60.43 51.623 60.1764 51.9136 59.9359C52.204 59.6954 52.4683 59.5085 52.7059 59.3749C52.9702 59.2415 53.1551 59.2282 53.2609 59.3349ZM68.8348 61.0577C68.8612 61.3515 68.8085 61.8056 68.6763 62.42C68.5708 63.0341 68.3991 63.6485 68.1612 64.2628C67.95 64.8772 67.6593 65.4113 67.2893 65.8654C66.9459 66.3195 66.5497 66.5464 66.1005 66.5464C65.7835 66.5464 65.5192 66.2928 65.308 65.7851C65.1231 65.2777 64.9777 64.6903 64.872 64.0226C64.7929 63.328 64.7267 62.6469 64.6739 61.9792C64.6212 61.3115 64.5681 60.8441 64.5154 60.5769C64.436 60.4433 64.2777 60.3231 64.0398 60.2164C63.8286 60.0828 63.6171 60.0159 63.4058 60.0159C63.1945 60.0159 62.9566 60.1897 62.6926 60.5369C62.4283 60.8841 62.1641 61.2846 61.8998 61.7387C61.6621 62.1928 61.4509 62.6469 61.2657 63.101C61.1075 63.5551 61.0413 63.889 61.0676 64.1026C61.0676 64.2628 61.2393 64.5433 61.5827 64.9439C61.9264 65.3446 62.3489 65.8254 62.8509 66.3862C63.3794 66.9205 63.9341 67.508 64.5154 68.149C65.1231 68.7633 65.6777 69.391 66.1799 70.0321C66.6818 70.6464 67.1044 71.2339 67.448 71.7949C67.8178 72.3559 68.0159 72.8364 68.0423 73.2372C68.0687 73.718 67.9368 74.3323 67.6461 75.08C67.3818 75.828 67.0384 76.5492 66.6156 77.2436C66.1931 77.938 65.7439 78.539 65.2684 79.0464C64.7929 79.5539 64.3701 79.821 64.0003 79.8477C63.6302 79.8744 63.0888 79.6741 62.3756 79.2467C61.6885 78.7928 60.9885 78.2718 60.2751 77.6844C59.5883 77.07 58.9674 76.469 58.4125 75.8815C57.8842 75.2938 57.5803 74.8664 57.5012 74.5995C57.4218 74.359 57.3691 74.0385 57.3427 73.638C57.3427 73.2372 57.3559 72.8364 57.3822 72.4359C57.435 72.0354 57.5144 71.7013 57.6201 71.4344C57.7256 71.1405 57.8578 70.9936 58.0163 70.9936C58.1748 70.9936 58.4918 71.2741 58.9674 71.8349C59.4429 72.3692 59.958 72.9833 60.513 73.678C61.0676 74.3456 61.6094 74.96 62.1377 75.5208C62.666 76.0551 63.0492 76.3221 63.2868 76.3221C63.419 76.3221 63.5643 76.2287 63.7228 76.0415C63.8813 75.828 64.0267 75.5877 64.1588 75.3205C64.2909 75.0533 64.3964 74.7864 64.4758 74.5192C64.5813 74.2254 64.6343 73.9985 64.6343 73.8382C64.608 73.5977 64.3964 73.2505 64.0003 72.7964C63.6039 72.3423 63.1019 71.8349 62.4943 71.2741C61.8866 70.7131 61.2262 70.1256 60.513 69.5113C59.7995 68.8703 59.1391 68.2692 58.5314 67.7082C57.9237 67.1474 57.4218 66.64 57.0256 66.1859C56.6292 65.7318 56.418 65.3846 56.3916 65.1441C56.3652 64.9039 56.4443 64.53 56.6292 64.0226C56.8141 63.4882 57.052 62.9141 57.3427 62.2997C57.6333 61.6587 57.9635 61.0044 58.3333 60.3364C58.7295 59.6687 59.1259 59.0544 59.5223 58.4936C59.9185 57.9328 60.3014 57.4787 60.6715 57.1313C61.0676 56.7574 61.411 56.5705 61.7017 56.5705C62.283 56.5705 62.9698 56.7308 63.7624 57.0513C64.5813 57.3718 65.3607 57.7723 66.1005 58.2533C66.8404 58.7072 67.4744 59.188 68.0027 59.6954C68.531 60.2031 68.8085 60.6569 68.8348 61.0577ZM74.4227 63.5415C74.4754 63.6751 74.5018 64.1026 74.5018 64.8236C74.5282 65.5182 74.5282 66.3728 74.5018 67.3877C74.5018 68.3762 74.4754 69.4444 74.4227 70.5928C74.3697 71.7149 74.3037 72.7831 74.2243 73.798C74.1716 74.7864 74.1056 75.641 74.0263 76.3621C73.9469 77.0567 73.8677 77.4705 73.7886 77.6041C73.5507 77.9782 73.1941 78.2185 72.7186 78.3254C72.243 78.4054 71.8996 78.4187 71.6881 78.3654C71.5826 78.3654 71.4637 78.0582 71.3315 77.4438C71.2258 76.8295 71.1202 76.0551 71.0145 75.1203C70.9087 74.1854 70.8164 73.1705 70.737 72.0754C70.6579 70.9803 70.5917 69.9385 70.5389 68.9503C70.4862 67.9354 70.4596 67.0539 70.4596 66.3062C70.4596 65.5582 70.4862 65.0774 70.5389 64.8638C70.6183 64.5167 70.8428 64.2095 71.2126 63.9423C71.609 63.6751 72.0183 63.4749 72.4411 63.3413C72.8903 63.2077 73.2996 63.1544 73.6697 63.181C74.0658 63.181 74.3169 63.3013 74.4227 63.5415ZM74.6208 57.0513C74.7263 57.2649 74.7661 57.5587 74.7397 57.9328C74.7397 58.3067 74.6999 58.6938 74.6208 59.0946C74.5414 59.4951 74.4359 59.8826 74.3037 60.2564C74.1716 60.6303 74.0394 60.9241 73.9073 61.138C73.6433 61.5118 73.2469 61.7521 72.7186 61.859C72.2167 61.939 71.8466 61.9526 71.609 61.899C71.4241 61.8723 71.2389 61.7521 71.0541 61.5385C70.8692 61.298 70.7106 61.0177 70.5785 60.6972C70.4464 60.35 70.354 59.9759 70.3013 59.5754C70.2483 59.1746 70.2615 58.8008 70.3409 58.4536C70.42 58.1064 70.6711 57.7992 71.0936 57.5321C71.5164 57.2382 71.9656 57.0246 72.4411 56.891C72.9167 56.7308 73.3658 56.6641 73.7886 56.6908C74.2112 56.6908 74.4886 56.8108 74.6208 57.0513ZM83.8542 58.8541C83.7484 58.7474 83.5239 58.6405 83.1805 58.5336C82.8371 58.4269 82.5992 58.4669 82.4671 58.6539C82.388 58.7608 82.2558 59.108 82.0709 59.6954C81.886 60.2831 81.6877 61.031 81.4764 61.939C81.2915 62.8472 81.1198 63.889 80.9613 65.0641C80.8292 66.2392 80.7633 67.4546 80.7633 68.71C80.7633 69.618 80.8028 70.4862 80.882 71.3141C80.9613 72.1154 81.0536 72.8231 81.1594 73.4374C81.2915 74.0518 81.4369 74.5459 81.5954 74.92C81.7803 75.2938 81.9652 75.4941 82.1501 75.5208C82.3086 75.5208 82.4935 75.3339 82.705 74.96C82.9426 74.5859 83.1673 74.1587 83.3786 73.678C83.6165 73.1705 83.8146 72.7031 83.9731 72.2756C84.158 71.8215 84.2901 71.5277 84.3693 71.3944C84.5808 71.0469 84.858 70.7533 85.2017 70.5128C85.5451 70.2456 85.8357 70.1123 86.0734 70.1123C86.2055 70.1123 86.2978 70.2056 86.3508 70.3926C86.43 70.5795 86.483 70.8067 86.5093 71.0738C86.5621 71.3141 86.5885 71.568 86.5885 71.8349C86.5885 72.1021 86.5885 72.3156 86.5885 72.4759C86.5885 72.7697 86.5357 73.3174 86.43 74.1185C86.3244 74.92 86.1659 75.7346 85.9544 76.5626C85.7695 77.3905 85.5451 78.1251 85.2808 78.7662C85.0429 79.4072 84.7789 79.7141 84.4882 79.6874C84.1976 79.6608 83.7616 79.5272 83.1805 79.2869C82.5992 79.0464 82.0047 78.7662 81.3973 78.4456C80.816 78.1251 80.2743 77.8046 79.7723 77.4841C79.2968 77.1367 79.0061 76.8697 78.9006 76.6826C78.7949 76.4956 78.6364 76.0415 78.4251 75.3205C78.2136 74.5726 77.9891 73.6646 77.7512 72.5962C77.54 71.5277 77.3551 70.3526 77.1965 69.0705C77.038 67.7885 76.9589 66.5064 76.9589 65.2244C76.9589 63.9423 76.9853 62.6736 77.038 61.4182C77.1172 60.1628 77.2361 59.041 77.3946 58.0528C77.5531 57.0646 77.7512 56.2633 77.9891 55.649C78.2534 55.0346 78.5704 54.7141 78.9402 54.6874C79.9704 54.5808 81.0009 54.6741 82.0314 54.968C83.088 55.2351 84.0259 55.609 84.8448 56.0897C85.6904 56.5438 86.3772 57.038 86.9055 57.5721C87.434 58.0795 87.7113 58.5069 87.7379 58.8541C87.7643 59.2282 87.7379 59.749 87.6585 60.4167C87.6058 61.0844 87.5132 61.7654 87.381 62.46C87.2755 63.1277 87.1434 63.7421 86.9849 64.3028C86.8527 64.8372 86.7338 65.1441 86.628 65.2244C86.3904 65.4646 86.1129 65.7185 85.7959 65.9856C85.4789 66.2526 85.175 66.3062 84.8846 66.1459C84.7789 66.0923 84.6863 65.8921 84.6072 65.5449C84.5278 65.171 84.4486 64.7169 84.3693 64.1826C84.3165 63.6485 84.2638 63.0744 84.2107 62.46C84.158 61.8456 84.1052 61.2846 84.0522 60.7772C84.0259 60.2431 83.9863 59.8023 83.9335 59.4551C83.9069 59.0813 83.8805 58.8808 83.8542 58.8541Z" fill="white"/>
</svg>
